<svg data-v-5802c77e="" viewBox="0 0 159 86" xmlns="http://www.w3.org/2000/svg" fill-rule="evenodd" clip-rule="evenodd" stroke-linejoin="round" stroke-miterlimit="2" class="logo"><path data-v-5802c77e="" d="M96.63 40.5a6.636 6.636 0 00-2.51-2.45c-1.06-.59-2.25-.89-3.57-.89H71.68c-2.63 0-4.75 2.13-4.75 4.75v43.31h6.87V67.58c0-1.04.8-1.96 1.85-1.98 1.07-.03 1.94.83 1.94 1.89v.18c0 2.09 1.7 3.79 3.79 3.79h9.17c.24 0 .48-.01.72-.03h2.18a4.11 4.11 0 004.11-4.11V44c0-1.32-.31-2.5-.92-3.54M90.69 63.2c0 .4-.15.73-.44 1.01-.26.24-.61.37-.97.37H75.2c-.3 0-.75-.16-.97-.37-.29-.27-.44-.61-.44-1.01V45.4c0-.3.16-.75.37-.97.27-.29.61-.44 1.01-.44h14.11c.3 0 .75.16.97.37.29.27.44.61.44 1.01V63.2zM146.35 64.25c-.29-.27-.44-.61-.44-1.01V45.41c0-.4.15-.73.44-1.01.22-.21.66-.37.97-.37h10.79v-6.87h-4.6a3.82 3.82 0 00-3.82 3.82v.07c0 1.04-.8 1.96-1.84 1.98-1.07.03-1.95-.83-1.94-1.89v-.18c0-2.09-1.7-3.79-3.79-3.79h-8.25v6.87h3.77c.3 0 .75.16.97.37.29.27.44.61.44 1.01v17.8c0 .3-.16.75-.37.97-.27.29-.61.44-1.01.44h-1.31a3.816 3.816 0 00-3.68 3.81v.07c0 1.04-.8 1.96-1.84 1.98-1.07.03-1.94-.83-1.94-1.89v-.18c0-2.05-1.62-3.71-3.65-3.78h-16.6c-.36 0-.68-.13-.96-.4-.28-.27-.42-.59-.42-.97v-4.12c0-.36.14-.68.42-.96.28-.28.6-.42.96-.42h22.29V44.2c0-1.34-.3-2.54-.89-3.6a6.475 6.475 0 00-2.48-2.5c-1.06-.6-2.27-.9-3.64-.9H107.4c-1.32 0-2.51.3-3.57.9-1.06.6-1.9 1.44-2.51 2.5-.61 1.06-.92 2.26-.92 3.6v23.16a4.11 4.11 0 004.11 4.11h2.19c.23.02.47.03.71.03h44.04v-6.87h-4.12c-.36 0-.71-.12-.96-.37m-39.08-18.84c0-.38.14-.7.42-.97.28-.27.6-.4.96-.4h14.05c.4 0 .73.13.99.4s.39.59.39.97v4.12c0 .38-.13.7-.39.97s-.59.4-.99.4h-14.05c-.36 0-.68-.14-.96-.42-.28-.28-.42-.6-.42-.96v-4.12.01zM75.2 6.87h22.34V0h-.32a3.82 3.82 0 00-3.82 3.82v.07c0 1.04-.8 1.96-1.85 1.98-1.07.03-1.95-.83-1.94-1.89V3.8c0-2.09-1.7-3.79-3.79-3.79H73.95c-1.34 0-2.54.3-3.6.9-1.06.6-1.89 1.44-2.5 2.5-.6 1.06-.91 2.26-.91 3.6v6.6c0 1.32.3 2.51.91 3.57.6 1.06 1.44 1.89 2.5 2.5 1.06.6 2.26.91 3.6.91H89.2c.42 0 .84.16 1.12.47.22.25.34.55.34.9V26c0 .42-.16.84-.47 1.12-.25.22-.55.34-.9.34H76.64a3.82 3.82 0 00-3.82 3.82v.07c0 1.04-.8 1.96-1.85 1.98-1.07.03-1.94-.83-1.94-1.89v-.18c0-2.09-1.7-3.79-3.79-3.79h.09c-.53-.05-.95-.38-1.25-.99V7c0-1.34-.3-2.54-.91-3.6a6.596 6.596 0 00-2.5-2.5c-1.06-.6-2.26-.9-3.6-.9H33.43v6.87h22.32c.42 0 .84.16 1.12.47.22.25.34.55.34.9v4.04c0 .42-.16.84-.47 1.12-.25.22-.55.34-.9.34H40.45c-1.34 0-2.54.3-3.6.9-1.06.6-1.89 1.44-2.5 2.5-.6 1.06-.91 2.25-.91 3.57v6.6c0 1.34.3 2.54.91 3.6.6 1.06 1.44 1.89 2.5 2.5 1.06.6 2.26.91 3.6.91h9.2a3.82 3.82 0 003.82-3.82v-.07c0-1.04.8-1.96 1.85-1.98 1.07-.03 1.95.83 1.94 1.89v.18c0 2.09 1.7 3.79 3.79 3.79h29.49c1.34 0 2.54-.3 3.6-.91 1.06-.6 1.89-1.44 2.5-2.5.6-1.06.9-2.26.9-3.6v-6.6c0-1.32-.3-2.51-.9-3.57a6.596 6.596 0 00-2.5-2.5c-1.06-.6-2.26-.9-3.6-.9H75.28c-.42 0-.84-.16-1.12-.47-.22-.25-.34-.55-.34-.9V8.32c0-.42.16-.84.47-1.12.25-.22.55-.34.9-.34m-17.98 19.2c0 .35-.11.65-.34.9-.28.32-.7.47-1.12.47h-14c-.42 0-.84-.16-1.12-.47-.22-.25-.34-.55-.34-.9v-4.04c0-.42.16-.84.47-1.12.25-.22.55-.34.9-.34h14.08c.42 0 .84.16 1.12.47.22.25.34.55.34.9v4.12l.01.01zM6.87 26.08V8.32c0-.42.16-.84.47-1.12.25-.22.55-.34.9-.34h22.35V0h-.32a3.82 3.82 0 00-3.82 3.82v.07c0 1.04-.8 1.96-1.85 1.98-1.07.03-1.94-.83-1.94-1.89V3.8c0-2.09-1.7-3.79-3.79-3.79H7c-1.34 0-2.54.3-3.6.9-1.06.6-1.89 1.44-2.5 2.5C.3 4.47 0 5.67 0 7.01v20.31c0 1.34.3 2.54.9 3.6.6 1.06 1.44 1.89 2.5 2.5 1.06.6 2.26.91 3.6.91h23.59v-6.87H8.32c-.42 0-.84-.16-1.12-.47-.22-.25-.34-.55-.34-.9" fill="#f4f4f4" fill-rule="nonzero"></path></svg>
