<svg width="48" height="48" viewBox="0 0 48 48" fill="none" xmlns="http://www.w3.org/2000/svg">
<path d="M37.6313 8H10.3625C9.05625 8 8 9.03125 8 10.3063V37.6875C8 38.9625 9.05625 40 10.3625 40H37.6313C38.9375 40 40 38.9625 40 37.6938V10.3063C40 9.03125 38.9375 8 37.6313 8ZM17.4937 35.2687H12.7438V19.9937H17.4937V35.2687ZM15.1188 17.9125C13.5938 17.9125 12.3625 16.6812 12.3625 15.1625C12.3625 13.6437 13.5938 12.4125 15.1188 12.4125C16.6375 12.4125 17.8687 13.6437 17.8687 15.1625C17.8687 16.675 16.6375 17.9125 15.1188 17.9125ZM35.2687 35.2687H30.525V27.8438C30.525 26.075 30.4937 23.7937 28.0562 23.7937C25.5875 23.7937 25.2125 25.725 25.2125 27.7188V35.2687H20.475V19.9937H25.025V22.0813H25.0875C25.7188 20.8813 27.2688 19.6125 29.575 19.6125C34.3813 19.6125 35.2687 22.775 35.2687 26.8875V35.2687Z" fill="black"/>
</svg>
