<svg width="540" height="103" viewBox="0 0 540 103" fill="none" xmlns="http://www.w3.org/2000/svg">
<g clip-path="url(#clip0_5477_3281)">
<path d="M192.287 75.2682V27.3144C192.255 27.0868 192.275 26.8548 192.348 26.6366C192.421 26.4184 192.543 26.2202 192.706 26.0576C192.868 25.895 193.067 25.7726 193.285 25.7C193.503 25.6273 193.735 25.6065 193.963 25.6392H213.671C215.431 25.5344 217.195 25.7811 218.859 26.3651C220.524 26.9491 222.055 27.8587 223.365 29.0408C224.571 30.3199 225.502 31.8333 226.098 33.4871C226.695 35.1409 226.946 36.8997 226.834 38.6544V63.9451C226.946 65.6998 226.695 67.4588 226.098 69.1126C225.502 70.7664 224.571 72.2799 223.365 73.559C222.055 74.7411 220.524 75.6506 218.859 76.2346C217.195 76.8187 215.431 77.0654 213.671 76.9605H193.963C193.733 76.9939 193.499 76.973 193.28 76.8995C193.06 76.826 192.861 76.7019 192.698 76.5372C192.535 76.3726 192.413 76.1719 192.341 75.9515C192.27 75.7311 192.252 75.4971 192.287 75.2682ZM203.296 68.1675H211.995C212.642 68.3042 213.313 68.2772 213.947 68.0891C214.581 67.901 215.157 67.5577 215.625 67.0902C216.092 66.6227 216.436 66.0457 216.624 65.4119C216.812 64.7781 216.839 64.1074 216.702 63.4606V39.1265C216.839 38.4796 216.812 37.809 216.624 37.1751C216.436 36.5413 216.092 35.9643 215.625 35.4968C215.157 35.0293 214.581 34.6861 213.947 34.4979C213.313 34.3098 212.642 34.2828 211.995 34.4196H203.296C203.177 34.4025 203.055 34.4132 202.941 34.4512C202.827 34.4892 202.723 34.5533 202.638 34.6383C202.553 34.7233 202.49 34.8271 202.452 34.9412C202.414 35.0552 202.403 35.1764 202.42 35.2954V67.3085C202.407 67.4255 202.421 67.5439 202.461 67.6547C202.501 67.7654 202.565 67.8657 202.65 67.9477C202.734 68.0297 202.836 68.0914 202.948 68.128C203.06 68.1646 203.179 68.1751 203.296 68.1589V68.1675Z" fill="white"/>
<path d="M263.618 76.9437H245.985C244.222 77.057 242.453 76.8192 240.782 76.244C239.112 75.6689 237.572 74.7678 236.252 73.5931C235.05 72.3039 234.125 70.7817 233.535 69.1208C232.944 67.4598 232.701 65.6955 232.82 63.9369V49.2592C232.701 47.5005 232.944 45.736 233.535 44.075C234.125 42.4141 235.05 40.8922 236.252 39.603C237.572 38.4283 239.112 37.5272 240.782 36.952C242.453 36.3769 244.222 36.139 245.985 36.2523H252.29C254.053 36.1392 255.822 36.3771 257.492 36.9523C259.163 37.5274 260.703 38.4285 262.023 39.603C263.225 40.8925 264.149 42.4144 264.739 44.0753C265.329 45.7362 265.573 47.5006 265.455 49.2592V59.3916C265.487 59.6192 265.466 59.8513 265.394 60.0695C265.321 60.2877 265.199 60.4859 265.036 60.6485C264.874 60.8111 264.675 60.9335 264.457 61.0061C264.239 61.0787 264.007 61.0996 263.779 61.0668H243.752C243.115 61.0668 242.796 61.3588 242.796 61.9427V63.6989C242.675 64.9783 243.062 66.2537 243.875 67.2491C244.899 68.0683 246.202 68.4543 247.507 68.3248H263.622C264.739 68.3248 265.297 68.9103 265.297 70.081V75.3534C265.345 75.7967 265.217 76.2411 264.94 76.5908C264.56 76.8728 264.087 76.999 263.618 76.9437ZM243.748 54.2848H254.599C254.718 54.301 254.839 54.2896 254.952 54.2513C255.066 54.213 255.17 54.149 255.254 54.0642C255.339 53.9794 255.403 53.876 255.441 53.7624C255.48 53.6487 255.491 53.5277 255.475 53.4089V49.5823C255.619 48.9452 255.599 48.2822 255.417 47.6549C255.236 47.0275 254.899 46.4562 254.437 45.9944C253.975 45.5327 253.404 45.1953 252.776 45.0137C252.149 44.8322 251.486 44.8123 250.849 44.9561H247.498C246.861 44.8115 246.198 44.8307 245.57 45.0119C244.942 45.1931 244.369 45.5302 243.907 45.9921C243.445 46.454 243.107 47.0255 242.926 47.6533C242.744 48.2811 242.724 48.9448 242.868 49.5823V53.4089C242.851 53.5283 242.861 53.6503 242.9 53.7647C242.938 53.8792 243.003 53.983 243.088 54.0681C243.174 54.1532 243.278 54.217 243.392 54.2547C243.507 54.2923 243.629 54.3026 243.748 54.2848Z" fill="white"/>
<path d="M301.035 76.9438H283.402C281.639 77.0574 279.871 76.8196 278.2 76.2444C276.529 75.6693 274.99 74.7681 273.67 73.5932C272.468 72.304 271.543 70.7818 270.953 69.1209C270.362 67.4599 270.119 65.6956 270.238 63.937V49.2593C270.119 47.5007 270.362 45.7361 270.953 44.0752C271.543 42.4142 272.468 40.8923 273.67 39.6031C274.99 38.4282 276.529 37.5268 278.2 36.9516C279.871 36.3764 281.639 36.1389 283.402 36.2525H289.708C291.471 36.1394 293.24 36.3772 294.91 36.9524C296.581 37.5275 298.121 38.4286 299.441 39.6031C300.642 40.8927 301.567 42.4149 302.157 44.0757C302.747 45.7365 302.99 47.5007 302.872 49.2593V59.3917C302.905 59.6194 302.884 59.8514 302.812 60.0696C302.739 60.2878 302.616 60.486 302.454 60.6486C302.291 60.8112 302.093 60.9336 301.875 61.0062C301.657 61.0788 301.425 61.0997 301.197 61.0669H281.17C280.532 61.0669 280.213 61.3589 280.213 61.9428V63.699C280.091 64.9779 280.478 66.2532 281.289 67.2492C282.313 68.068 283.616 68.454 284.92 68.3249H301.04C302.157 68.3249 302.715 68.9104 302.715 70.0811V75.3535C302.762 75.7968 302.634 76.2412 302.358 76.5909C301.978 76.8733 301.505 76.9996 301.035 76.9438ZM281.166 54.2849H292.017C292.136 54.3018 292.258 54.291 292.372 54.253C292.486 54.215 292.59 54.151 292.675 54.0661C292.76 53.9813 292.825 53.8778 292.863 53.7638C292.902 53.6498 292.913 53.5283 292.897 53.409V49.5824C293.041 48.9449 293.021 48.2812 292.839 47.6534C292.658 47.0256 292.32 46.4542 291.857 45.9922C291.395 45.5303 290.823 45.1932 290.195 45.012C289.568 44.8308 288.904 44.8116 288.267 44.9562H284.916C284.279 44.8125 283.616 44.8323 282.989 45.0138C282.361 45.1954 281.79 45.5328 281.328 45.9946C280.866 46.4564 280.529 47.0276 280.348 47.655C280.166 48.2823 280.146 48.9454 280.29 49.5824V53.409C280.273 53.5272 280.284 53.6479 280.321 53.7612C280.359 53.8745 280.422 53.9774 280.506 54.0623C280.59 54.1471 280.693 54.2115 280.806 54.2501C280.918 54.2888 281.039 54.3005 281.157 54.2849H281.166Z" fill="white"/>
<path d="M316.917 87.7947H310.113C308.997 87.7947 308.439 87.2632 308.439 86.2002V37.936C308.406 37.7084 308.427 37.4763 308.499 37.2582C308.572 37.04 308.695 36.8418 308.857 36.6792C309.02 36.5166 309.217 36.3939 309.436 36.3213C309.654 36.2487 309.886 36.2281 310.113 36.2608H316.917C317.144 36.2288 317.376 36.2502 317.594 36.3231C317.811 36.3961 318.009 36.5185 318.171 36.681C318.333 36.8435 318.455 37.0416 318.527 37.2595C318.599 37.4773 318.621 37.7088 318.588 37.936V40.5681H318.907C319.492 39.1316 320.606 37.9747 322.019 37.3365C323.486 36.6241 325.095 36.2562 326.726 36.2608H329.996C331.693 36.1378 333.398 36.3724 334.999 36.9496C336.6 37.5267 338.062 38.4334 339.291 39.6112C341.552 42.3004 342.681 45.7621 342.441 49.2674V63.9453C342.682 67.4507 341.552 70.9126 339.291 73.6015C338.062 74.7794 336.6 75.6863 334.999 76.2634C333.398 76.8406 331.693 77.0752 329.996 76.9522H326.726C325.095 76.957 323.486 76.5888 322.019 75.8762C320.606 75.2381 319.492 74.0814 318.907 72.645H318.588V86.2087C318.591 87.2661 318.034 87.7947 316.917 87.7947ZM324.094 68.1675H327.606C328.254 68.305 328.927 68.2783 329.562 68.0896C330.197 67.9009 330.775 67.5562 331.242 67.0871C331.71 66.6179 332.054 66.0392 332.241 65.4036C332.428 64.7679 332.453 64.0956 332.314 63.4478V49.7224C332.451 49.0755 332.423 48.4049 332.235 47.771C332.047 47.1372 331.704 46.5602 331.236 46.0927C330.769 45.6252 330.191 45.282 329.558 45.0938C328.924 44.9057 328.253 44.8787 327.606 45.0155H324.094C320.409 45.0155 318.566 47.0367 318.566 51.0789V62.0916C318.583 66.1423 320.423 68.1675 324.094 68.1675Z" fill="white"/>
<path d="M359.76 27.3145V75.2683C359.793 75.4959 359.771 75.728 359.699 75.9461C359.626 76.1643 359.504 76.3625 359.342 76.5251C359.179 76.6877 358.981 76.8104 358.762 76.883C358.544 76.9556 358.312 76.9762 358.085 76.9435H351.281C351.054 76.9755 350.823 76.9541 350.605 76.8812C350.388 76.8083 350.189 76.6858 350.027 76.5233C349.865 76.3608 349.743 76.1629 349.671 75.9451C349.599 75.7273 349.578 75.4955 349.611 75.2683V27.3145C349.578 27.0873 349.599 26.8558 349.671 26.638C349.743 26.4201 349.865 26.222 350.027 26.0595C350.189 25.897 350.388 25.7745 350.605 25.7016C350.823 25.6287 351.054 25.6073 351.281 25.6393H358.085C358.312 25.6066 358.544 25.6274 358.762 25.7C358.981 25.7727 359.179 25.8951 359.342 26.0577C359.504 26.2203 359.626 26.4185 359.699 26.6367C359.771 26.8548 359.793 27.0869 359.76 27.3145Z" fill="white"/>
<path d="M376.197 76.9435H369.415C369.188 76.9763 368.956 76.9554 368.737 76.8828C368.519 76.8102 368.321 76.6878 368.158 76.5252C367.996 76.3626 367.873 76.1644 367.8 75.9462C367.727 75.728 367.707 75.4959 367.74 75.2683V37.9359C367.707 37.7083 367.727 37.4762 367.8 37.258C367.873 37.0399 367.996 36.8417 368.158 36.6791C368.321 36.5165 368.519 36.3938 368.737 36.3212C368.956 36.2486 369.188 36.228 369.415 36.2607H376.197C376.425 36.228 376.657 36.2486 376.875 36.3212C377.093 36.3938 377.292 36.5165 377.454 36.6791C377.617 36.8417 377.739 37.0399 377.811 37.258C377.884 37.4762 377.905 37.7083 377.872 37.9359V40.568H378.191C378.912 39.2133 380.045 38.1233 381.427 37.4555C383.044 36.6346 384.839 36.2242 386.653 36.2607H388.889C390.86 36.1062 392.836 36.5013 394.596 37.4021C396.356 38.3028 397.831 39.674 398.859 41.3631C399.749 39.6913 401.109 38.3167 402.772 37.4099C404.434 36.503 406.327 36.1036 408.214 36.2607H410.531C412.229 36.1379 413.933 36.3726 415.534 36.9497C417.135 37.5269 418.598 38.4335 419.826 39.6111C422.084 42.3025 423.213 45.7625 422.977 49.2673V75.2766C423.01 75.5042 422.989 75.7363 422.917 75.9545C422.844 76.1727 422.721 76.3711 422.559 76.5337C422.396 76.6963 422.198 76.8187 421.979 76.8913C421.761 76.964 421.529 76.9848 421.302 76.9521H414.499C414.272 76.9841 414.04 76.9627 413.822 76.8898C413.605 76.8169 413.407 76.6942 413.245 76.5317C413.083 76.3691 412.96 76.1713 412.888 75.9534C412.815 75.7356 412.795 75.5038 412.828 75.2766V49.7435C412.953 48.4448 412.581 47.1468 411.785 46.1123C411.288 45.7049 410.715 45.4001 410.099 45.2154C409.483 45.0308 408.836 44.9701 408.197 45.0366H406.203C402.518 45.0366 400.675 47.0847 400.675 51.1807V75.2766C400.675 76.3935 400.09 76.9521 398.919 76.9521H392.219C391.991 76.9846 391.758 76.9637 391.54 76.8911C391.321 76.8185 391.123 76.696 390.961 76.5335C390.798 76.371 390.675 76.1729 390.601 75.9547C390.528 75.7366 390.507 75.5045 390.539 75.2766V49.7435C390.676 49.0967 390.648 48.426 390.46 47.7922C390.272 47.1584 389.929 46.5814 389.462 46.1139C388.994 45.6464 388.417 45.3031 387.783 45.115C387.149 44.9269 386.478 44.8999 385.831 45.0366H383.357C379.686 45.0366 377.844 47.0578 377.83 51.1V75.2766C377.86 75.4996 377.839 75.7265 377.768 75.94C377.697 76.1534 377.577 76.3479 377.42 76.5086C377.262 76.6693 377.07 76.7919 376.858 76.8672C376.646 76.9426 376.421 76.9688 376.197 76.9435Z" fill="white"/>
<path d="M443.701 76.9437H441.788C440.024 77.0576 438.255 76.82 436.583 76.2448C434.912 75.6697 433.371 74.7683 432.051 73.5931C430.849 72.3037 429.925 70.7817 429.334 69.1208C428.744 67.4599 428.5 65.6955 428.619 63.9369V49.2592C428.501 47.5006 428.744 45.7362 429.334 44.0753C429.925 42.4145 430.849 40.8925 432.051 39.603C433.371 38.4278 434.912 37.5264 436.583 36.9512C438.255 36.3761 440.024 36.1384 441.788 36.2523H460.216C461.387 36.2523 461.972 36.8107 461.972 37.9275V75.2685C461.972 76.3854 461.387 76.9437 460.216 76.9437H453.515C453.288 76.9765 453.055 76.9556 452.836 76.883C452.618 76.8104 452.421 76.688 452.258 76.5254C452.096 76.3628 451.973 76.1646 451.9 75.9464C451.827 75.7282 451.807 75.4961 451.84 75.2685V72.6365H451.516C450.933 74.0724 449.82 75.2294 448.408 75.868C446.941 76.5802 445.332 76.9481 443.701 76.9437ZM451.84 62.1044V45.9086C451.84 45.3218 451.516 45.0285 450.883 45.0285H443.383C442.743 44.9617 442.096 45.0222 441.48 45.2068C440.864 45.3915 440.291 45.6966 439.794 46.1042C439.001 47.1397 438.63 48.4374 438.756 49.7354V63.4479C438.63 64.746 439.002 66.0434 439.794 67.0791C440.292 67.4865 440.865 67.7914 441.481 67.976C442.097 68.1607 442.743 68.2214 443.383 68.1548H446.333C450.001 68.1633 451.837 66.1466 451.84 62.1044Z" fill="white"/>
<path d="M483.118 75.1069H480.481C478.783 75.2304 477.078 74.9961 475.477 74.4189C473.876 73.8417 472.414 72.9345 471.186 71.7562C468.926 69.0664 467.797 65.6052 468.035 62.1V49.2548C467.917 47.4962 468.159 45.7318 468.75 44.0709C469.34 42.41 470.264 40.8879 471.466 39.5986C472.787 38.4234 474.328 37.522 475.999 36.9468C477.671 36.3717 479.439 36.1343 481.203 36.2482H499.635C500.803 36.2482 501.389 36.8066 501.392 37.9234V77.2583C501.506 79.0074 501.256 80.761 500.659 82.409C500.062 84.0569 499.13 85.5635 497.923 86.8338C496.606 88.0024 495.073 88.9 493.409 89.4749C491.746 90.0498 489.985 90.291 488.228 90.1844H472.921C472.451 90.2349 471.981 90.1057 471.603 89.8229C471.33 89.4716 471.204 89.0281 471.25 88.5855V83.0793C471.218 82.8521 471.238 82.6203 471.31 82.4025C471.383 82.1847 471.504 81.9868 471.667 81.8243C471.829 81.6618 472.027 81.5391 472.245 81.4661C472.462 81.3932 472.693 81.3721 472.921 81.4041H486.565C487.869 81.5327 489.172 81.1465 490.196 80.3281C491.006 79.3313 491.393 78.0566 491.273 76.7779V70.7189H490.949C490.36 72.1605 489.251 73.3277 487.841 73.9886C486.376 74.7289 484.758 75.1121 483.118 75.1069ZM491.255 60.2675V45.9044C491.255 45.3176 490.933 45.0241 490.299 45.0241H482.798C482.158 44.9573 481.512 45.018 480.896 45.2027C480.28 45.3873 479.707 45.6922 479.209 46.0998C478.415 47.1348 478.045 48.4329 478.172 49.731V61.6365C478.028 62.2736 478.048 62.9366 478.229 63.5639C478.411 64.1913 478.748 64.7626 479.21 65.2244C479.672 65.6861 480.244 66.0235 480.871 66.2051C481.498 66.3866 482.161 66.4065 482.798 66.2627H485.749C489.417 66.257 491.255 64.2587 491.255 60.2675Z" fill="white"/>
<path d="M538.163 76.9437H520.517C518.754 77.057 516.985 76.8192 515.315 76.244C513.644 75.6689 512.104 74.7678 510.784 73.5931C509.583 72.3037 508.658 70.7816 508.068 69.1208C507.478 67.4599 507.235 65.6955 507.354 63.9369V49.2592C507.235 47.5006 507.478 45.7362 508.068 44.0753C508.658 42.4144 509.583 40.8925 510.784 39.603C512.104 38.4283 513.644 37.5272 515.315 36.952C516.985 36.3769 518.754 36.139 520.517 36.2523H526.819C528.582 36.1394 530.351 36.3774 532.022 36.9525C533.694 37.5276 535.235 38.4285 536.556 39.603C537.756 40.8934 538.679 42.4156 539.268 44.0763C539.858 45.737 540.101 47.501 539.982 49.2592V59.3916C540.015 59.6192 539.995 59.8513 539.922 60.0695C539.85 60.2877 539.727 60.4859 539.564 60.6485C539.401 60.8111 539.204 60.9335 538.986 61.0061C538.768 61.0787 538.535 61.0996 538.307 61.0668H518.28C517.643 61.0668 517.324 61.3602 517.324 61.9427V63.6989C517.202 64.9785 517.59 66.2544 518.404 67.2491C519.426 68.068 520.728 68.4541 522.031 68.3248H538.15C539.284 68.3248 539.844 68.9103 539.83 70.081V75.3534C539.878 75.7967 539.749 76.2411 539.473 76.5908C539.096 76.8692 538.628 76.9953 538.163 76.9437ZM518.294 54.2848H529.145C529.264 54.3019 529.385 54.2911 529.499 54.2531C529.613 54.2152 529.717 54.151 529.802 54.066C529.887 53.981 529.951 53.8775 529.989 53.7634C530.027 53.6494 530.037 53.5279 530.02 53.4089V49.5823C530.164 48.9448 530.145 48.2811 529.963 47.6533C529.781 47.0255 529.443 46.454 528.981 45.9921C528.519 45.5302 527.947 45.1931 527.319 45.0119C526.691 44.8307 526.028 44.8115 525.39 44.9561H522.039C521.402 44.8123 520.739 44.8322 520.112 45.0137C519.484 45.1953 518.913 45.5327 518.452 45.9944C517.99 46.4562 517.652 47.0275 517.471 47.6549C517.289 48.2822 517.27 48.9452 517.414 49.5823V53.4089C517.396 53.5287 517.407 53.651 517.446 53.7658C517.484 53.8806 517.549 53.9847 517.635 54.0699C517.721 54.1551 517.826 54.2189 517.941 54.2563C518.056 54.2936 518.174 54.3034 518.294 54.2848Z" fill="white"/>
<path d="M131.304 51.2745L113.173 69.405L104.244 78.3341L104.172 78.4106L104.053 78.5297L103.976 78.6019C96.7575 85.765 86.993 89.7737 76.8234 89.749C66.6539 89.7243 56.909 85.6681 49.7252 78.47L40.6602 69.405L42.2079 67.8573L49.7252 60.3397L58.7905 69.405C61.1704 71.7869 63.9965 73.6763 67.107 74.9655C70.2176 76.2547 73.5515 76.9184 76.9187 76.9184C80.2858 76.9184 83.62 76.2547 86.7306 74.9655C89.8411 73.6763 92.6672 71.7869 95.0472 69.405L104.112 60.3397L113.177 51.2745L115.303 49.1485L122.23 42.2222L128.085 48.0772L131.304 51.2745Z" fill="white"/>
<path d="M153.831 12.8155V25.6351H141.011V12.8155H128.191V7.05561e-07H141.011C142.694 -0.00055779 144.361 0.330451 145.917 0.974237C147.472 1.61802 148.885 2.56193 150.076 3.752C151.266 4.94208 152.211 6.35504 152.855 7.91016C153.499 9.46527 153.831 11.1322 153.831 12.8155Z" fill="white"/>
<path d="M153.831 76.9138V89.7336C153.831 93.1324 152.481 96.3921 150.077 98.7955C147.674 101.199 144.414 102.549 141.015 102.549H128.191V89.7336H141.011V76.9138H153.831Z" fill="white"/>
<path d="M25.6388 89.7377V102.549H12.7979C9.39902 102.549 6.13934 101.199 3.73598 98.7955C1.33262 96.3921 -0.0175781 93.1324 -0.0175781 89.7336V76.9138H12.8022V89.7336H25.6218L25.6388 89.7377Z" fill="white"/>
<path d="M25.6394 0V12.8155H12.8197V25.6351H0V12.8155C0.00112156 9.41989 1.34932 6.16346 3.74876 3.76083C6.1482 1.3582 9.4029 0.00563095 12.7985 0H25.6394Z" fill="white"/>
<path d="M76.9133 51.2743L85.9785 60.3396C84.7885 61.53 83.3756 62.4743 81.8205 63.1185C80.2654 63.7628 78.5986 64.0943 76.9153 64.0943C75.2321 64.0943 73.5655 63.7628 72.0104 63.1185C70.4553 62.4743 69.0425 61.53 67.8524 60.3396L58.7871 51.2743L67.8524 42.2093C69.0425 41.0189 70.4553 40.0746 72.0104 39.4304C73.5655 38.7861 75.2321 38.4546 76.9153 38.4546C78.5986 38.4546 80.2654 38.7861 81.8205 39.4304C83.3756 40.0746 84.7885 41.0189 85.9785 42.2093L76.9133 51.2743Z" fill="white"/>
<path d="M113.175 33.1441L111.627 34.6916L104.11 42.2091L95.2782 33.382L95.0444 33.1482L94.8104 32.9144C90.0238 28.2477 83.6033 25.6359 76.9182 25.6359C70.2332 25.6359 63.8126 28.2477 59.0259 32.9144L58.7921 33.1482L58.5581 33.382L49.7268 42.2091L31.5964 60.3396L22.5312 51.2744L25.7415 48.0641L31.5964 42.2091L40.6574 33.1441L49.7225 24.0788C53.2912 20.5033 57.53 17.6667 62.1962 15.7313C66.8624 13.7959 71.8644 12.7998 76.916 12.7998C81.9677 12.7998 86.9698 13.7959 91.636 15.7313C96.3022 17.6667 100.541 20.5033 104.11 24.0788L113.175 33.1441Z" fill="white"/>
</g>
<defs>
<clipPath id="clip0_5477_3281">
<rect width="540" height="102.549" fill="white"/>
</clipPath>
</defs>
</svg>
