<svg xmlns="http://www.w3.org/2000/svg" width="540" height="135" viewBox="0 0 540 135" fill="none">
  <path d="M532.771 20.1782V53.2782H532.024C528.684 46.9282 522.053 42.5282 514.426 42.5282H507.048C496.03 42.5282 487.107 51.4782 487.107 62.5282V82.5782C487.107 93.6282 496.03 102.578 507.048 102.578H514.426C521.953 102.578 528.484 98.3282 531.874 92.1282H532.422L532.821 101.478H540V20.1782H532.771ZM517.018 95.0782H509.64C501.364 95.0782 494.684 88.3782 494.684 80.0782V65.0782C494.684 56.7782 501.364 50.0782 509.64 50.0782H517.018C525.294 50.0782 531.974 56.7782 531.974 65.0782V80.0782C531.974 88.3782 525.294 95.0782 517.018 95.0782Z" fill="white"/>
  <path d="M455.65 43.6279C452.908 43.6279 450.665 45.8779 450.665 48.6279V101.528H458.891V50.1779H481.324V43.6279H455.65Z" fill="white"/>
  <path d="M431.621 101.528L431.521 60.4281C431.521 50.5781 423.545 42.5281 413.674 42.5281H403.953C394.132 42.5281 386.106 50.5281 386.106 60.4281H393.534C394.232 53.9781 399.616 48.9781 406.246 48.9781H411.331C418.41 48.9781 424.193 54.7281 424.193 61.8781V66.9281H402.059C392.238 66.9281 384.211 74.9281 384.211 84.8281C384.211 94.7281 392.188 102.728 402.059 102.728H409.237C415.17 102.728 420.354 99.7781 423.595 95.3281H424.143V101.628H431.521L431.621 101.528ZM409.437 96.1781H403.454C397.173 96.1781 392.138 91.0781 392.138 84.8281C392.138 78.5781 397.223 73.4781 403.454 73.4781H424.243V81.3781C424.243 89.5781 417.613 96.2281 409.437 96.2281V96.1781Z" fill="white"/>
  <path d="M362.975 80.0779C362.975 88.3779 356.295 95.0779 348.019 95.0779H344.23C335.955 95.0779 329.275 88.3779 329.275 80.0779V43.6279H321.697V82.6279C321.697 93.6779 330.621 102.628 341.638 102.628H345.477C353.004 102.628 359.535 98.3779 362.925 92.1779H363.473L363.872 101.528H371.051V43.6279H363.124L363.025 80.0779H362.975Z" fill="white"/>
  <path d="M296.621 90.7282H270.997C268.554 90.7282 266.61 88.9782 266.61 86.5282C266.61 84.0782 268.554 82.1282 270.997 82.1282H286.7C296.322 82.1282 304.149 74.2782 304.149 64.6282V60.0282C304.149 54.4782 301.507 49.5782 297.518 46.3782V42.3282H309.583V35.7782H296.92C294.178 35.7782 291.935 38.0282 291.935 40.7782V43.4282C290.29 42.8782 288.545 42.5282 286.7 42.5282H278.126C268.504 42.5282 260.677 50.3782 260.677 60.0282V64.6282C260.677 70.5282 263.619 75.7282 268.056 78.8782C263.519 79.0782 259.88 82.7782 259.88 87.3782C259.88 91.1782 262.422 94.2782 265.862 95.2782C260.079 97.0782 255.892 101.928 255.892 107.678V109.328C255.892 116.628 262.572 122.528 270.847 122.528H296.521C304.797 122.528 311.477 115.828 311.477 107.528V105.628C311.477 97.3282 304.797 90.6282 296.521 90.6282L296.621 90.7282ZM268.255 58.6282C268.255 53.3282 272.742 49.0282 278.225 49.0282H286.75C292.234 49.0282 296.721 53.3282 296.721 58.6282V66.0282C296.721 71.3282 292.234 75.6282 286.75 75.6282H278.225C272.742 75.6282 268.255 71.3282 268.255 66.0282V58.6282ZM296.272 115.428H271.296C266.46 115.428 262.522 111.478 262.522 106.628C262.522 101.778 266.46 97.8282 271.296 97.8282H296.272C301.108 97.8282 305.046 101.778 305.046 106.628C305.046 111.478 301.108 115.428 296.272 115.428Z" fill="white"/>
  <path d="M248.663 26.7782V20.1782H231.913C229.171 20.1782 226.928 22.4282 226.928 25.1782V43.6282H216.907V50.3782H226.928V101.528H234.256V50.3782H247.367V43.6282H234.256V26.7782H248.663Z" fill="white"/>
  <path d="M209.38 74.2281V67.5281C209.38 53.7281 198.213 42.5281 184.454 42.5281H182.161C168.401 42.5281 157.234 53.7281 157.234 67.5281V76.2781C157.234 90.7781 169.049 102.578 183.457 102.578H185.75C197.116 102.578 206.588 94.9281 209.579 84.5281H201.005C197.764 92.7281 190.336 98.1281 180.615 95.8781C170.894 93.6281 165.061 84.8781 165.061 75.3281V74.2281H209.38ZM183.706 48.7281C193.976 48.7281 201.354 57.0781 201.354 67.4281V67.8781H165.061V67.4281C165.061 57.1281 173.387 48.7281 183.706 48.7281Z" fill="white"/>
  <path d="M135.399 20.1782V53.2782H134.651C131.311 46.9282 124.681 42.5282 117.053 42.5282H109.675C98.6577 42.5282 89.7342 51.4782 89.7342 62.5282V82.5782C89.7342 93.6282 98.6577 102.578 109.675 102.578H117.053C124.581 102.578 131.112 98.3282 134.502 92.1282H135.05L135.449 101.478H142.627V20.1782H135.399ZM119.646 95.0782H112.267C103.992 95.0782 97.3117 88.3782 97.3117 80.0782V65.0782C97.3117 56.7782 103.992 50.0782 112.267 50.0782H119.646C127.921 50.0782 134.601 56.7782 134.601 65.0782V80.0782C134.601 88.3782 127.921 95.0782 119.646 95.0782Z" fill="white"/>
  <path d="M57.7298 0V29.2447L32.4894 14.6224L0 33.4338V104.464L32.4632 123.276L57.7035 108.653V123.724L45.4904 130.811L52.7132 135L64.9263 127.913V66.8413L32.4632 48.0299L7.22279 62.6522V37.5966L32.4632 22.9742L57.7035 37.5966V45.9221L64.9263 50.1112V4.18911L57.7035 0H57.7298ZM7.22279 100.275V75.2196L32.4632 89.8419L57.7035 75.2196V100.275L32.4632 114.898L7.22279 100.275ZM54.1053 68.9491L32.4632 81.49L10.8211 68.9491L32.4632 56.4081L54.1053 68.9491Z" fill="white"/>
</svg>
