<svg width="32" height="32" viewBox="0 0 32 32" fill="none" xmlns="http://www.w3.org/2000/svg">
<g id="github-icon">
<path id="Vector" fill-rule="evenodd" clip-rule="evenodd" d="M15.9965 5.33334C13.4642 5.3347 11.0149 6.25951 9.08663 7.94241C7.15836 9.62532 5.87681 11.9566 5.47115 14.5193C5.06549 17.0821 5.56216 19.7092 6.87236 21.931C8.18256 24.1527 10.2209 25.8242 12.6228 26.6466C13.1527 26.748 13.3523 26.4094 13.3523 26.1214C13.3523 25.8335 13.3417 24.9986 13.3381 24.0859C10.3707 24.7469 9.74364 22.7947 9.74364 22.7947C9.25967 21.527 8.56019 21.1938 8.56019 21.1938C7.59224 20.5165 8.63262 20.5292 8.63262 20.5292C9.70479 20.607 10.2682 21.6574 10.2682 21.6574C11.2185 23.3289 12.7641 22.8454 13.3717 22.5629C13.4671 21.8548 13.7444 21.3731 14.05 21.0996C11.6795 20.8243 9.18901 19.8863 9.18901 15.6957C9.17432 14.6089 9.56767 13.5579 10.2877 12.7601C10.1782 12.4848 9.81253 11.3729 10.3919 9.86257C10.3919 9.86257 11.2874 9.56919 13.3258 10.9836C15.0742 10.4934 16.9188 10.4934 18.6672 10.9836C20.7038 9.56919 21.5975 9.86257 21.5975 9.86257C22.1787 11.3693 21.813 12.4812 21.7035 12.7601C22.4258 13.558 22.82 14.6108 22.8039 15.6993C22.8039 19.8989 20.3081 20.8243 17.9342 21.0942C18.3157 21.4346 18.6566 22.0993 18.6566 23.1206C18.6566 24.5839 18.6442 25.761 18.6442 26.1214C18.6442 26.413 18.8367 26.7534 19.3772 26.6466C21.7794 25.8241 23.8179 24.1523 25.1281 21.9302C26.4383 19.7081 26.9347 17.0805 26.5286 14.5175C26.1225 11.9545 24.8403 9.62327 22.9114 7.94066C20.9825 6.25804 18.5326 5.33384 16 5.33334H15.9965Z" fill="black"/>
</g>
</svg>
