<svg width="168" height="34" viewBox="0 0 168 34" fill="none" xmlns="http://www.w3.org/2000/svg">
<g id="tntLogo">
<path id="Vector" d="M27.2121 5.74976C36.4587 5.74976 40.9511 10.8806 40.9511 19.9995C40.9511 20.5374 40.8776 21.614 40.7635 22.2495H23.1715C23.699 24.2722 25.7626 25.4041 28.314 25.4041C30.9179 25.4041 33.1503 23.7381 33.6777 22.9999L40.1434 27.4999C39.5031 28.7839 35.6669 33.4994 28.0206 33.4994C18.4023 33.4994 12.665 26.835 12.665 19.2496C12.6648 11.8569 18.6147 5.74976 27.2121 5.74976ZM31.2492 16.9946C31.1272 15.4219 29.8827 13.2497 27.2104 13.2497C24.3453 13.2497 23.2924 15.6788 23.1715 16.9946H31.2492Z" fill="black"/>
<path id="Vector_2" d="M153.288 5.74976C162.534 5.74976 167.027 10.8806 167.027 19.9995C167.027 20.5374 166.953 21.614 166.839 22.2495H149.247C149.774 24.2722 151.838 25.4041 154.39 25.4041C156.993 25.4041 159.225 23.7381 159.753 22.9999L166.219 27.4999C165.579 28.7839 161.742 33.4994 154.096 33.4994C144.478 33.4994 138.741 26.835 138.741 19.2496C138.74 11.8569 144.691 5.74976 153.288 5.74976ZM157.324 16.9946C157.203 15.4219 155.958 13.2497 153.285 13.2497C150.421 13.2497 149.368 15.6788 149.247 16.9946H157.324Z" fill="black"/>
<path id="Vector_3" d="M57.923 33.4999C49.0484 33.4999 42.5674 27.8822 42.5674 19.9997C42.5674 12.1095 49.0484 5.75 57.9224 5.75C66.7878 5.75 73.278 12.1095 73.278 19.9997C73.2783 27.8819 66.7884 33.4999 57.923 33.4999ZM57.9227 25.2499C60.7341 25.2499 62.7718 23.0607 62.7718 19.6536C62.7718 16.2386 60.7344 14 57.9227 14C55.1118 14 53.0736 16.2386 53.0736 19.6536C53.0736 23.0607 55.1115 25.2499 57.9227 25.2499Z" fill="black"/>
<path id="Vector_4" d="M102.373 15.5V32.7493H91.8661V16.9996C91.8661 15.025 90.3286 13.9998 88.6336 13.9998C86.6185 13.9998 85.4011 15.5148 85.4011 16.9996V32.7493H75.7031V6.49934H85.4013V8.97135C86.4132 7.63917 89.2235 5.74951 92.675 5.74951C99.3174 5.74978 102.373 9.48782 102.373 15.5Z" fill="black"/>
<path id="Vector_5" d="M116.92 6.49976H106.414V32.7497H116.92V6.49976Z" fill="black"/>
<path id="Vector_6" d="M122.465 0.5H132.164V6.49971H137.013V14.0001H132.164V23.1794C132.164 25.009 134.405 25.25 135.996 25.25C136.368 25.25 137.012 25.25 137.012 25.25V32.7496C137.012 32.7496 135.523 33.5 132.971 33.5C125.75 33.5 122.465 30.7494 122.465 23.7495V13.9999H120.041V6.49944H122.465V0.5H122.465Z" fill="black"/>
<path id="Vector_7" d="M117.319 0.5C117.319 3.39958 114.786 5.74987 111.662 5.74987C108.537 5.74987 106.005 3.39958 106.005 0.5H117.319Z" fill="black"/>
<path id="Vector_8" d="M7.27366 23.1791L7.27423 13.9999H10.5062V6.49971H7.27366V0.5H0V31.1362C1.72062 32.7787 4.38524 33.5 8.08223 33.5C10.6342 33.5 12.1228 32.7496 12.1228 32.7496V25.2497C12.1228 25.2497 11.4784 25.2497 11.1066 25.2497C9.51489 25.2497 7.27366 25.009 7.27366 23.1791Z" fill="black"/>
</g>
</svg>
