<svg width="155" height="34" viewBox="0 0 155 34" fill="none" xmlns="http://www.w3.org/2000/svg">
<path d="M25.1711 5.75C33.7242 5.75 37.8797 10.8808 37.8797 19.9997C37.8797 20.5376 37.8117 21.6142 37.7062 22.2497H21.4336C21.9215 24.2725 23.8303 25.4044 26.1904 25.4044C28.599 25.4044 30.6639 23.7383 31.1518 23.0001L37.1326 27.5002C36.5402 28.7842 32.9918 33.4996 25.919 33.4996C17.022 33.4996 11.7151 26.8353 11.7151 19.2499C11.7148 11.8571 17.2185 5.75 25.1711 5.75ZM28.9054 16.9948C28.7926 15.4221 27.6414 13.2499 25.1695 13.2499C22.5193 13.2499 21.5454 15.6791 21.4336 16.9948H28.9054Z" fill="black"/>
<path d="M141.791 5.75C150.344 5.75 154.5 10.8808 154.5 19.9997C154.5 20.5376 154.431 21.6142 154.326 22.2497H138.053C138.541 24.2725 140.45 25.4044 142.81 25.4044C145.218 25.4044 147.283 23.7383 147.771 23.0001L153.752 27.5002C153.16 28.7842 149.611 33.4996 142.538 33.4996C133.642 33.4996 128.335 26.8353 128.335 19.2499C128.335 11.8571 133.839 5.75 141.791 5.75ZM145.525 16.9948C145.412 15.4221 144.261 13.2499 141.789 13.2499C139.139 13.2499 138.165 15.6791 138.053 16.9948H145.525Z" fill="black"/>
<path d="M53.5789 33.4999C45.37 33.4999 39.375 27.8822 39.375 19.9997C39.375 12.1095 45.37 5.75 53.5784 5.75C61.7789 5.75 67.7823 12.1095 67.7823 19.9997C67.7826 27.8819 61.7794 33.4999 53.5789 33.4999ZM53.5787 25.2499C56.1792 25.2499 58.0641 23.0607 58.0641 19.6536C58.0641 16.2386 56.1795 14 53.5787 14C50.9786 14 49.0932 16.2386 49.0932 19.6536C49.0932 23.0607 50.9783 25.2499 53.5787 25.2499Z" fill="black"/>
<path d="M94.695 15.5V32.7493H84.9762V16.9996C84.9762 15.025 83.5539 13.9998 81.9861 13.9998C80.1221 13.9998 78.996 15.5148 78.996 16.9996V32.7493H70.0254V6.49934H78.9962V8.97135C79.9322 7.63917 82.5317 5.74951 85.7244 5.74951C91.8686 5.74978 94.695 9.48782 94.695 15.5Z" fill="black"/>
<path d="M108.151 6.5H98.4324V32.7499H108.151V6.5Z" fill="black"/>
<path d="M113.28 0.5H122.251V6.49971H126.737V14.0001H122.251V23.1794C122.251 25.009 124.324 25.25 125.796 25.25C126.141 25.25 126.736 25.25 126.736 25.25V32.7496C126.736 32.7496 125.359 33.5 122.998 33.5C116.318 33.5 113.28 30.7494 113.28 23.7495V13.9999H111.037V6.49944H113.28V0.5H113.28Z" fill="black"/>
<path d="M108.52 0.5C108.52 3.39958 106.177 5.74987 103.287 5.74987C100.397 5.74987 98.0544 3.39958 98.0544 0.5H108.52Z" fill="black"/>
<path d="M6.72814 23.1791L6.72866 13.9999H9.71824V6.49971H6.72814V0.5H0V31.1362C1.59158 32.7787 4.05635 33.5 7.47606 33.5C9.83666 33.5 11.2136 32.7496 11.2136 32.7496V25.2497C11.2136 25.2497 10.6175 25.2497 10.2736 25.2497C8.80127 25.2497 6.72814 25.009 6.72814 23.1791Z" fill="black"/>
</svg>
